<?xml version="1.0" encoding="utf-8"?>
<!-- Generator: Adobe Illustrator 19.2.0, SVG Export Plug-In . SVG Version: 6.00 Build 0)  -->
<svg version="1.1" id="structure" xmlns="http://www.w3.org/2000/svg" xmlns:xlink="http://www.w3.org/1999/xlink" x="0px" y="0px"
	 viewBox="0 0 224 232" enable-background="new 0 0 224 232" xml:space="preserve">
<g>
	<path fill="none" d="M112,200c-6.6172,0-12,5.3829-12,12c0,6.6173,5.3828,12,12,12s12-5.3827,12-12
		C124,205.3829,118.6172,200,112,200z"/>
	<path fill="none" d="M204,44c-6.6172,0-12,5.3829-12,12c0,6.6173,5.3828,12,12,12c6.6172,0,12-5.3827,12-12
		C216,49.3829,210.6172,44,204,44z"/>
	<path fill="none" d="M20,44c-6.6172,0-12,5.3829-12,12c0,6.6173,5.3828,12,12,12s12-5.3827,12-12C32,49.3829,26.6172,44,20,44z"/>
	<path d="M31.8008,142.9101c-1.922-1.1052-4.3592-0.4452-5.4648,1.4648L18.4688,158c-0.7128,1.2385-0.7128,2.7617,0,4
		c0.7148,1.2385,2.0352,2,3.4648,2h0.2656c1.836,0,3.2892-1.2343,3.7304-2.9219l7.336-12.7032
		C34.3692,146.4609,33.7148,144.0157,31.8008,142.9101z"/>
	<path d="M58.1992,156h-16c-2.2088,0-4,1.7893-4,4c0,2.2109,1.7912,4,4,4h16c2.2092,0,4-1.7891,4-4
		C62.1992,157.7893,60.4084,156,58.1992,156z"/>
	<path d="M130.1992,164c2.2092,0,4-1.7891,4-4c0-2.2107-1.7908-4-4-4h-16c-2.2088,0-4,1.7893-4,4c0,2.2109,1.7912,4,4,4H130.1992z"
		/>
	<path d="M91.8008,38.9885c0.6288,0.3632,1.3184,0.5352,1.996,0.5352c1.3828,0,2.7268-0.7152,3.4688-2l8-13.8557
		c1.1036-1.9139,0.4492-4.3595-1.4648-5.4647c-1.916-1.1056-4.3632-0.4532-5.4648,1.4647l-8,13.8557
		C89.2324,35.4377,89.8868,37.8829,91.8008,38.9885z"/>
	<path d="M116.5352,19.8557c0.742,1.2852,2.086,2,3.4688,2c0.6776,0,1.3672-0.172,1.996-0.5352
		c1.914-1.1056,2.5684-3.5508,1.4648-5.4648l-8-13.8557c-0.7148-1.2383-2.0332-2-3.4608-2c-0.002,0-0.002,0-0.002,0
		c-1.4276,0-2.748,0.7617-3.4628,1.996L108.34,2.34c-0.9572,1.652-0.5256,3.5741,0.8436,4.7813L116.5352,19.8557z"/>
	<path d="M192.004,146.5625c0.6776,0,1.3672-0.1716,1.996-0.5352c1.914-1.1052,2.5684-3.5508,1.4648-5.4648l-8-13.8552
		c-1.1056-1.918-3.5548-2.5744-5.4648-1.4652c-1.914,1.1056-2.5684,3.5508-1.4648,5.4652l8,13.8552
		C189.2772,145.8477,190.6212,146.5625,192.004,146.5625z"/>
	<path d="M156.004,84.2109c0.6776,0,1.3672-0.1716,1.996-0.5352c1.914-1.1052,2.5684-3.5508,1.4648-5.4648l-8-13.8552
		c-1.1072-1.918-3.5584-2.5744-5.4648-1.4648c-1.914,1.1051-2.5684,3.5508-1.4648,5.4648l8,13.8552
		C153.2772,83.496,154.6212,84.2109,156.004,84.2109z"/>
	<path d="M57.7968,101.8749c1.3828,0,2.7268-0.7149,3.4688-2l8-13.8552c1.1036-1.914,0.4492-4.3597-1.4648-5.4648
		c-1.912-1.1056-4.3612-0.4532-5.4648,1.4648l-8,13.8552c-1.1036,1.9144-0.4492,4.3596,1.4648,5.4651
		C56.4296,101.7033,57.1192,101.8749,57.7968,101.8749z"/>
	<path d="M205.4804,157.9101c-0.8652-1.5232-2.5644-2.2344-4.1756-1.9101h-15.1056c-2.2088,0-4,1.7893-4,4c0,2.2109,1.7912,4,4,4
		h15.8672c1.424,0,2.7404-0.7579,3.4552-1.9843c0.7168-1.2304,0.7264-2.75,0.0252-3.9884L205.4804,157.9101z"/>
	<path d="M204,36c-9.6576,0-17.7372,6.8829-19.5956,16h-43.838c1.4152-1.2311,1.8708-3.2783,0.8984-4.9647l-8-13.8596
		c-1.1072-1.91-3.5508-2.574-5.4648-1.4648c-1.912,1.1056-2.5684,3.5508-1.4648,5.4648l8,13.8596
		c0.2184,0.3772,0.5004,0.6887,0.8092,0.9647h-47.666c-0.2312-1.0635-0.8604-2.0335-1.8776-2.6211
		c-1.914-1.1052-4.3592-0.4532-5.4648,1.4648L79.6684,52H39.5956C37.7372,42.8829,29.6576,36,20,36C8.9728,36,0,44.9729,0,56
		c0,11.0273,8.9728,20,20,20c9.6576,0,17.7372-6.8827,19.5956-16h35.4536l-2.7132,4.6993c-1.1036,1.914-0.4492,4.3592,1.4648,5.4647
		c0.6288,0.3633,1.3184,0.5353,1.996,0.5353c1.3828,0,2.7268-0.7148,3.4688-2L84.2884,60h100.116
		c0.826,4.0529,2.9036,7.6389,5.7812,10.4l-17.7924,30.2033l-2.9284-5.072c-1.1092-1.918-3.5548-2.574-5.4648-1.4648
		c-1.914,1.1055-2.5684,3.5508-1.4648,5.4648l5.1924,8.9927L117.96,193.0089C116.0652,192.4117,114.0892,192,112,192
		c-2.4516,0-4.7736,0.5049-6.946,1.3157L87.786,164h6.4132c2.2092,0,4-1.7891,4-4c0-2.2107-1.7908-4-4-4H83.0736L33.334,71.5585
		l-6.8944,4.0628l21.0068,35.6624c-1.2512,0.1144-2.4352,0.7424-3.1104,1.9116l-8,13.8596
		c-1.1036,1.914-0.4472,4.3592,1.4648,5.4648c0.6308,0.3632,1.3184,0.5352,1.996,0.5352c1.3828,0,2.7268-0.7189,3.4688-2
		l7.8332-13.5704l23.7944,40.3948c-0.4016,0.6236-0.694,1.3236-0.694,2.1207c0,2.2109,1.7912,4,4,4h0.2992l19.7576,33.5417
		C94.422,201.188,92,206.304,92,212c0,11.0273,8.9728,20,20,20s20-8.9727,20-20c0-6.0611-2.768-11.4351-7.0412-15.1063
		l21.366-36.2704c0.3104,1.9016,1.8864,3.3767,3.8744,3.3767h16c2.2092,0,4-1.7891,4-4c0-2.2107-1.7908-4-4-4h-16
		c-0.4632,0-0.892,0.1189-1.306,0.2637l24.1524-41.0008c0.3128,0.0771,0.634,0.124,0.9584,0.124c0.6776,0,1.3672-0.172,1.996-0.5352
		c1.914-1.1056,2.5684-3.5508,1.4648-5.4648l-0.474-0.8212l19.9748-33.9088C199.162,75.4885,201.516,76,204,76
		c11.0272,0,20-8.9727,20-20C224,44.9729,215.0272,36,204,36z M20,68c-6.6172,0-12-5.3827-12-12c0-6.6171,5.3828-12,12-12
		s12,5.3829,12,12C32,62.6173,26.6172,68,20,68z M112,224c-6.6172,0-12-5.3827-12-12c0-6.6171,5.3828-12,12-12s12,5.3829,12,12
		C124,218.6173,118.6172,224,112,224z M204,68c-6.6172,0-12-5.3827-12-12c0-6.6171,5.3828-12,12-12c6.6172,0,12,5.3829,12,12
		C216,62.6173,210.6172,68,204,68z"/>
</g>
</svg>
